<svg version="1.0" xmlns="http://www.w3.org/2000/svg"
    width="512.000000pt" height="512.000000pt" viewBox="0 0 512.000000 512.000000"
    preserveAspectRatio="xMidYMid meet">

    <g transform="translate(0.000000,512.000000) scale(0.100000,-0.100000)"
        fill="#000000" stroke="none">
        <path
            d="M1068 3576 c-262 -47 -503 -193 -658 -398 -371 -492 -234 -1188 296
-1499 275 -161 591 -191 889 -85 244 87 448 246 880 681 430 434 575 563 797
712 141 93 351 198 452 223 363 92 745 -131 842 -490 23 -88 24 -254 1 -340
-32 -120 -83 -207 -177 -301 -69 -70 -101 -94 -170 -128 -113 -55 -194 -74
-310 -74 -125 -1 -183 14 -315 78 -203 99 -462 287 -673 489 l-83 80 -112
-112 -112 -112 115 -116 c285 -287 545 -487 738 -568 320 -134 674 -107 968
75 100 62 250 204 307 292 347 529 163 1217 -399 1496 -325 161 -685 145
-1018 -46 -224 -128 -379 -257 -761 -633 -410 -404 -544 -524 -745 -666 -181
-129 -351 -219 -460 -245 -77 -18 -231 -16 -310 4 -36 10 -103 36 -150 58 -69
34 -101 58 -170 128 -138 139 -194 275 -194 471 1 192 62 339 199 475 175 176
424 245 660 185 218 -56 584 -287 838 -529 l47 -45 110 109 110 110 -73 73
c-328 334 -677 568 -942 633 -105 26 -312 33 -417 15z" />
    </g>
</svg>